<svg width="42" height="42" viewBox="0 0 42 42" fill="none" xmlns="http://www.w3.org/2000/svg">
<path d="M2.25 25.1667C3.97917 26.5042 6.57708 27.2854 9.54167 27.25C12.5062 27.2854 15.1042 26.5042 16.8333 25.1667C18.5625 23.8292 21.1604 23.0479 24.125 23.0833C27.0896 23.0479 29.6875 23.8292 31.4167 25.1667M12.6667 2.25C12.0073 2.72327 11.4731 3.34994 11.1101 4.07588C10.7471 4.80183 10.5663 5.60522 10.5833 6.41667C10.5663 7.22812 10.7471 8.03151 11.1101 8.75745C11.4731 9.48339 12.0073 10.1101 12.6667 10.5833M21 2.25C20.3406 2.72327 19.8064 3.34994 19.4434 4.07588C19.0805 4.80183 18.8997 5.60522 18.9167 6.41667C18.8997 7.22812 19.0805 8.03151 19.4434 8.75745C19.8064 9.48339 20.3406 10.1101 21 10.5833" stroke="black" stroke-width="3" stroke-linecap="round" stroke-linejoin="round"/>
<path d="M2.25 16.8333H31.4167V27.25C31.4167 30.5652 30.0997 33.7446 27.7555 36.0888C25.4113 38.433 22.2319 39.75 18.9167 39.75H14.75C11.4348 39.75 8.25537 38.433 5.91117 36.0888C3.56696 33.7446 2.25 30.5652 2.25 27.25V16.8333Z" stroke="black" stroke-width="3" stroke-linecap="round" stroke-linejoin="round"/>
<path d="M30.8875 30.8458C31.8179 31.273 32.839 31.465 33.861 31.405C34.883 31.3451 35.8746 31.035 36.7487 30.502C37.6228 29.9691 38.3526 29.2296 38.8739 28.3485C39.3953 27.4674 39.6922 26.4717 39.7386 25.449C39.785 24.4263 39.5794 23.4078 39.14 22.4832C38.7006 21.5585 38.0407 20.7559 37.2185 20.146C36.3962 19.5361 35.4368 19.1375 34.4244 18.9853C33.412 18.833 32.3777 18.9318 31.4124 19.2729" stroke="black" stroke-width="3" stroke-linecap="round" stroke-linejoin="round"/>
</svg>
