<svg width="53" height="53" viewBox="0 0 53 53" fill="none" xmlns="http://www.w3.org/2000/svg">
<path fill-rule="evenodd" clip-rule="evenodd" d="M15.6778 0.4075C18.477 0.278636 19.3695 0.25 26.5 0.25C33.6305 0.25 34.523 0.281023 37.3198 0.4075C40.1166 0.533977 42.0257 0.980227 43.6961 1.62693C45.4453 2.28795 47.0323 3.32125 48.3448 4.65761C49.6811 5.96773 50.7121 7.55227 51.3707 9.30386C52.0198 10.9743 52.4636 12.8834 52.5925 15.6755C52.7214 18.4794 52.75 19.3719 52.75 26.5C52.75 33.6305 52.719 34.523 52.5925 37.3222C52.466 40.1142 52.0198 42.0233 51.3707 43.6938C50.712 45.4456 49.6794 47.0327 48.3448 48.3448C47.0323 49.6811 45.4453 50.7121 43.6961 51.3707C42.0257 52.0198 40.1166 52.4636 37.3245 52.5925C34.523 52.7214 33.6305 52.75 26.5 52.75C19.3695 52.75 18.477 52.719 15.6778 52.5925C12.8858 52.466 10.9767 52.0198 9.30625 51.3707C7.55447 50.712 5.9673 49.6794 4.65523 48.3448C3.31977 47.0339 2.28632 45.4475 1.62693 43.6961C0.980227 42.0257 0.536364 40.1166 0.4075 37.3245C0.278636 34.5206 0.25 33.6281 0.25 26.5C0.25 19.3695 0.281023 18.477 0.4075 15.6802C0.533977 12.8834 0.980227 10.9743 1.62693 9.30386C2.28729 7.55247 3.32153 5.96609 4.65761 4.65523C5.96782 3.32006 7.5534 2.28663 9.30386 1.62693C10.9743 0.980227 12.8834 0.536364 15.6755 0.4075H15.6778ZM37.1074 5.1325C34.3392 5.00602 33.5088 4.97977 26.5 4.97977C19.4913 4.97977 18.6608 5.00602 15.8926 5.1325C13.332 5.24943 11.9432 5.67659 11.0173 6.03693C9.79307 6.5142 8.91727 7.07977 7.99852 7.99852C7.12761 8.84581 6.45736 9.87726 6.03693 11.0173C5.67659 11.9432 5.24943 13.332 5.1325 15.8926C5.00602 18.6608 4.97977 19.4913 4.97977 26.5C4.97977 33.5088 5.00602 34.3392 5.1325 37.1074C5.24943 39.668 5.67659 41.0568 6.03693 41.9827C6.45693 43.121 7.1275 44.1543 7.99852 45.0015C8.84568 45.8725 9.87898 46.5431 11.0173 46.9631C11.9432 47.3234 13.332 47.7506 15.8926 47.8675C18.6608 47.994 19.4889 48.0202 26.5 48.0202C33.5111 48.0202 34.3392 47.994 37.1074 47.8675C39.668 47.7506 41.0568 47.3234 41.9827 46.9631C43.2069 46.4858 44.0827 45.9202 45.0015 45.0015C45.8725 44.1543 46.5431 43.121 46.9631 41.9827C47.3234 41.0568 47.7506 39.668 47.8675 37.1074C47.994 34.3392 48.0202 33.5088 48.0202 26.5C48.0202 19.4913 47.994 18.6608 47.8675 15.8926C47.7506 13.332 47.3234 11.9432 46.9631 11.0173C46.4858 9.79307 45.9202 8.91727 45.0015 7.99852C44.1541 7.12767 43.1227 6.45744 41.9827 6.03693C41.0568 5.67659 39.668 5.24943 37.1074 5.1325ZM23.1472 34.5922C25.0196 35.3716 27.1047 35.4768 29.0461 34.8898C30.9875 34.3028 32.6649 33.0599 33.7918 31.3735C34.9187 29.6872 35.4251 27.6619 35.2247 25.6435C35.0242 23.6252 34.1292 21.7391 32.6926 20.3074C31.7768 19.3922 30.6695 18.6914 29.4503 18.2555C28.2312 17.8196 26.9306 17.6594 25.6421 17.7865C24.3536 17.9136 23.1093 18.3247 21.9989 18.9904C20.8884 19.6561 19.9393 20.5597 19.2199 21.6362C18.5006 22.7127 18.0289 23.9354 17.8387 25.216C17.6486 26.4967 17.7448 27.8037 18.1204 29.0427C18.496 30.2818 19.1416 31.4221 20.0108 32.3817C20.88 33.3413 21.9512 34.0962 23.1472 34.5922ZM16.9593 16.9593C18.2122 15.7064 19.6996 14.7126 21.3366 14.0345C22.9736 13.3564 24.7281 13.0074 26.5 13.0074C28.2719 13.0074 30.0264 13.3564 31.6634 14.0345C33.3004 14.7126 34.7878 15.7064 36.0407 16.9593C37.2936 18.2122 38.2874 19.6996 38.9655 21.3366C39.6436 22.9736 39.9926 24.7281 39.9926 26.5C39.9926 28.2719 39.6436 30.0264 38.9655 31.6634C38.2874 33.3004 37.2936 34.7878 36.0407 36.0407C33.5103 38.571 30.0785 39.9926 26.5 39.9926C22.9216 39.9926 19.4897 38.571 16.9593 36.0407C14.429 33.5103 13.0074 30.0785 13.0074 26.5C13.0074 22.9216 14.429 19.4897 16.9593 16.9593ZM42.985 15.0168C43.2955 14.7239 43.544 14.3717 43.716 13.9811C43.8879 13.5904 43.9797 13.1692 43.9859 12.7424C43.9921 12.3157 43.9126 11.892 43.7522 11.4965C43.5917 11.101 43.3535 10.7417 43.0517 10.4399C42.7499 10.1381 42.3906 9.89988 41.9951 9.73942C41.5996 9.57896 41.1759 9.49949 40.7491 9.50571C40.3224 9.51193 39.9012 9.60372 39.5105 9.77564C39.1199 9.94756 38.7677 10.1961 38.4748 10.5066C37.9052 11.1104 37.5933 11.9124 37.6054 12.7424C37.6175 13.5724 37.9526 14.3651 38.5396 14.952C39.1265 15.539 39.9191 15.8741 40.7491 15.8862C41.5791 15.8983 42.3812 15.5864 42.985 15.0168Z" fill="black"/>
</svg>
