<svg width="53" height="44" viewBox="0 0 53 44" fill="none" xmlns="http://www.w3.org/2000/svg">
<path d="M52.75 5.56253C50.8193 6.41803 48.7453 6.99607 46.565 7.25734C48.8147 5.91118 50.4978 3.79249 51.3003 1.29658C49.1866 2.55206 46.8733 3.43579 44.4609 3.90933C42.8386 2.17721 40.6899 1.02913 38.3483 0.643337C36.0067 0.257547 33.6032 0.655632 31.511 1.77579C29.4188 2.89594 27.755 4.67549 26.7778 6.83816C25.8006 9.00082 25.5648 11.4256 26.1069 13.736C21.8241 13.521 17.6343 12.4078 13.8095 10.4687C9.98472 8.52964 6.6104 5.80799 3.90553 2.48041C2.98067 4.0758 2.44887 5.92554 2.44887 7.8955C2.44784 9.66892 2.88456 11.4152 3.72028 12.9793C4.556 14.5435 5.76488 15.8772 7.23967 16.8621C5.52931 16.8077 3.85668 16.3455 2.36101 15.5141V15.6528C2.36083 18.1401 3.22121 20.5509 4.79614 22.476C6.37107 24.4012 8.56355 25.7221 11.0016 26.2148C9.41492 26.6442 7.75144 26.7074 6.13677 26.3998C6.82463 28.5399 8.16453 30.4114 9.96887 31.7522C11.7732 33.0931 13.9517 33.8361 16.1993 33.8773C12.3839 36.8725 7.67179 38.4972 2.82113 38.4901C1.96188 38.4903 1.10336 38.4401 0.25 38.3398C5.1737 41.5055 10.9052 43.1856 16.7589 43.1791C36.5741 43.1791 47.4066 26.7674 47.4066 12.5337C47.4066 12.0713 47.395 11.6042 47.3742 11.1418C49.4813 9.618 51.3001 7.7311 52.7454 5.56946L52.75 5.56253Z" fill="black"/>
</svg>
